<?xml version="1.0" encoding="UTF-8" standalone="no"?>
<!DOCTYPE svg PUBLIC "-//W3C//DTD SVG 1.1//EN"
 "http://www.w3.org/Graphics/SVG/1.1/DTD/svg11.dtd">
<!-- Generated by graphviz version 2.40.1 (20161225.0304)
 -->
<!-- Title: dependencies Pages: 1 -->
<svg width="2310pt" height="428pt"
 viewBox="0.00 0.00 2310.00 428.00" xmlns="http://www.w3.org/2000/svg" xmlns:xlink="http://www.w3.org/1999/xlink">
<g id="graph0" class="graph" transform="scale(1 1) rotate(0) translate(4 424)">
<title>dependencies</title>
<polygon fill="#ffffff" stroke="transparent" points="-4,4 -4,-424 2306,-424 2306,4 -4,4"/>
<text text-anchor="start" x="1130.0091" y="-42.4" font-family="sans-serif" font-weight="bold" font-size="14.00" fill="#000000">Legend</text>
<polygon fill="#ffffb3" stroke="transparent" points="917,-10 917,-30 937,-30 937,-10 917,-10"/>
<text text-anchor="start" x="940.629" y="-15.4" font-family="sans-serif" font-size="14.00" fill="#000000"> &#160;Declarations</text>
<polygon fill="#8dd3c7" stroke="transparent" points="1030,-10 1030,-30 1050,-30 1050,-10 1030,-10"/>
<text text-anchor="start" x="1053.7251" y="-15.4" font-family="sans-serif" font-size="14.00" fill="#000000"> &#160;Module</text>
<polygon fill="#80b1d3" stroke="transparent" points="1116,-10 1116,-30 1136,-30 1136,-10 1116,-10"/>
<text text-anchor="start" x="1139.7812" y="-15.4" font-family="sans-serif" font-size="14.00" fill="#000000"> &#160;Bootstrap</text>
<polygon fill="#fdb462" stroke="transparent" points="1213,-10 1213,-30 1233,-30 1233,-10 1213,-10"/>
<text text-anchor="start" x="1236.6732" y="-15.4" font-family="sans-serif" font-size="14.00" fill="#000000"> &#160;Providers</text>
<polygon fill="#fb8072" stroke="transparent" points="1309,-10 1309,-30 1329,-30 1329,-10 1309,-10"/>
<text text-anchor="start" x="1332.7258" y="-15.4" font-family="sans-serif" font-size="14.00" fill="#000000"> &#160;Exports</text>
<g id="clust1" class="cluster">
<title>cluster_ApiModule</title>
<polygon fill="none" stroke="#000000" stroke-dasharray="1,5" points="8,-70 8,-198 418,-198 418,-70 8,-70"/>
</g>
<g id="clust6" class="cluster">
<title>cluster_ApiModule_providers</title>
<polygon fill="none" stroke="#000000" points="16,-78 16,-130 410,-130 410,-78 16,-78"/>
</g>
<g id="clust7" class="cluster">
<title>cluster_AppModule</title>
<polygon fill="none" stroke="#000000" stroke-dasharray="1,5" points="685,-214 685,-412 1080,-412 1080,-214 685,-214"/>
</g>
<g id="clust8" class="cluster">
<title>cluster_AppModule_declarations</title>
<polygon fill="none" stroke="#000000" points="950,-222 950,-274 1072,-274 1072,-222 950,-222"/>
</g>
<g id="clust10" class="cluster">
<title>cluster_AppModule_imports</title>
<polygon fill="none" stroke="#000000" points="693,-222 693,-274 942,-274 942,-222 693,-222"/>
</g>
<g id="clust12" class="cluster">
<title>cluster_AppModule_bootstrap</title>
<polygon fill="none" stroke="#000000" points="808,-352 808,-404 932,-404 932,-352 808,-352"/>
</g>
<g id="clust20" class="cluster">
<title>cluster_CoreModule</title>
<polygon fill="none" stroke="#000000" stroke-dasharray="1,5" points="426,-138 426,-206 1260,-206 1260,-138 426,-138"/>
</g>
<g id="clust21" class="cluster">
<title>cluster_CoreModule_declarations</title>
<polygon fill="none" stroke="#000000" points="1088,-146 1088,-198 1252,-198 1252,-146 1088,-146"/>
</g>
<g id="clust26" class="cluster">
<title>cluster_CoreModule_providers</title>
<polygon fill="none" stroke="#000000" points="434,-146 434,-198 1080,-198 1080,-146 434,-146"/>
</g>
<g id="clust27" class="cluster">
<title>cluster_PetModule</title>
<polygon fill="none" stroke="#000000" stroke-dasharray="1,5" points="1268,-70 1268,-198 2294,-198 2294,-70 1268,-70"/>
</g>
<g id="clust28" class="cluster">
<title>cluster_PetModule_declarations</title>
<polygon fill="none" stroke="#000000" points="1538,-78 1538,-130 2286,-130 2286,-78 1538,-78"/>
</g>
<g id="clust34" class="cluster">
<title>cluster_PetModule_imports</title>
<polygon fill="none" stroke="#000000" points="1276,-78 1276,-130 1530,-130 1530,-78 1276,-78"/>
</g>
<!-- PetService -->
<g id="node1" class="node">
<title>PetService</title>
<ellipse fill="#fdb462" stroke="#000000" cx="350" cy="-104" rx="52.1617" ry="18"/>
<text text-anchor="middle" x="350" y="-99.8" font-family="Times,serif" font-size="14.00" fill="#000000">PetService</text>
</g>
<!-- ApiModule -->
<g id="node4" class="node">
<title>ApiModule</title>
<polygon fill="#8dd3c7" stroke="#000000" points="324.0483,-190 321.0483,-194 300.0483,-194 297.0483,-190 243.9517,-190 243.9517,-154 324.0483,-154 324.0483,-190"/>
<text text-anchor="middle" x="284" y="-167.8" font-family="Times,serif" font-size="14.00" fill="#000000">ApiModule</text>
</g>
<!-- PetService&#45;&gt;ApiModule -->
<g id="edge1" class="edge">
<title>PetService&#45;&gt;ApiModule</title>
<path fill="none" stroke="#000000" d="M310.9715,-116.157C310.9715,-116.157 310.9715,-143.8038 310.9715,-143.8038"/>
<polygon fill="#000000" stroke="#000000" points="307.4716,-143.8037 310.9715,-153.8038 314.4716,-143.8038 307.4716,-143.8037"/>
</g>
<!-- StoreService -->
<g id="node2" class="node">
<title>StoreService</title>
<ellipse fill="#fdb462" stroke="#000000" cx="219" cy="-104" rx="60.2479" ry="18"/>
<text text-anchor="middle" x="219" y="-99.8" font-family="Times,serif" font-size="14.00" fill="#000000">StoreService</text>
</g>
<!-- StoreService&#45;&gt;ApiModule -->
<g id="edge2" class="edge">
<title>StoreService&#45;&gt;ApiModule</title>
<path fill="none" stroke="#000000" d="M261.5502,-116.7903C261.5502,-116.7903 261.5502,-143.8777 261.5502,-143.8777"/>
<polygon fill="#000000" stroke="#000000" points="258.0503,-143.8777 261.5502,-153.8777 265.0503,-143.8778 258.0503,-143.8777"/>
</g>
<!-- UserService -->
<g id="node3" class="node">
<title>UserService</title>
<ellipse fill="#fdb462" stroke="#000000" cx="82" cy="-104" rx="58.4415" ry="18"/>
<text text-anchor="middle" x="82" y="-99.8" font-family="Times,serif" font-size="14.00" fill="#000000">UserService</text>
</g>
<!-- UserService&#45;&gt;ApiModule -->
<g id="edge3" class="edge">
<title>UserService&#45;&gt;ApiModule</title>
<path fill="none" stroke="#000000" d="M82,-122.2228C82,-142.3652 82,-172 82,-172 82,-172 233.6078,-172 233.6078,-172"/>
<polygon fill="#000000" stroke="#000000" points="233.6078,-175.5001 243.6078,-172 233.6077,-168.5001 233.6078,-175.5001"/>
</g>
<!-- CoreModule -->
<g id="node8" class="node">
<title>CoreModule</title>
<polygon fill="#8dd3c7" stroke="#000000" points="787.2619,-266 784.2619,-270 763.2619,-270 760.2619,-266 700.7381,-266 700.7381,-230 787.2619,-230 787.2619,-266"/>
<text text-anchor="middle" x="744" y="-243.8" font-family="Times,serif" font-size="14.00" fill="#000000">CoreModule</text>
</g>
<!-- ApiModule&#45;&gt;CoreModule -->
<g id="edge9" class="edge">
<title>ApiModule&#45;&gt;CoreModule</title>
<path fill="none" stroke="#000000" d="M284,-190.1985C284,-214.3563 284,-254 284,-254 284,-254 690.7243,-254 690.7243,-254"/>
<polygon fill="#000000" stroke="#000000" points="690.7244,-257.5001 700.7243,-254 690.7243,-250.5001 690.7244,-257.5001"/>
</g>
<!-- AppComponent -->
<g id="node5" class="node">
<title>AppComponent</title>
<polygon fill="#ffffb3" stroke="#000000" points="1063.9399,-266 958.0601,-266 958.0601,-230 1063.9399,-230 1063.9399,-266"/>
<text text-anchor="middle" x="1011" y="-243.8" font-family="Times,serif" font-size="14.00" fill="#000000">AppComponent</text>
</g>
<!-- AppModule -->
<g id="node6" class="node">
<title>AppModule</title>
<polygon fill="#8dd3c7" stroke="#000000" points="911.6571,-331 908.6571,-335 887.6571,-335 884.6571,-331 828.3429,-331 828.3429,-295 911.6571,-295 911.6571,-331"/>
<text text-anchor="middle" x="870" y="-308.8" font-family="Times,serif" font-size="14.00" fill="#000000">AppModule</text>
</g>
<!-- AppComponent&#45;&gt;AppModule -->
<g id="edge4" class="edge">
<title>AppComponent&#45;&gt;AppModule</title>
<path fill="none" stroke="#000000" d="M1011,-266.1061C1011,-285.3391 1011,-313 1011,-313 1011,-313 921.9229,-313 921.9229,-313"/>
<polygon fill="#000000" stroke="#000000" points="921.9229,-309.5001 911.9229,-313 921.9229,-316.5001 921.9229,-309.5001"/>
</g>
<!-- AppComponent  -->
<g id="node9" class="node">
<title>AppComponent </title>
<polygon fill="#80b1d3" stroke="#000000" points="924.439,-396 815.561,-396 815.561,-360 924.439,-360 924.439,-396"/>
<text text-anchor="middle" x="870" y="-373.8" font-family="Times,serif" font-size="14.00" fill="#000000">AppComponent </text>
</g>
<!-- AppModule&#45;&gt;AppComponent  -->
<g id="edge7" class="edge">
<title>AppModule&#45;&gt;AppComponent </title>
<path fill="none" stroke="#000000" stroke-dasharray="1,5" d="M870,-331.1061C870,-331.1061 870,-349.991 870,-349.991"/>
<polygon fill="#000000" stroke="#000000" points="866.5001,-349.9909 870,-359.991 873.5001,-349.991 866.5001,-349.9909"/>
</g>
<!-- AppRoutingModule -->
<g id="node7" class="node">
<title>AppRoutingModule</title>
<polygon fill="#8dd3c7" stroke="#000000" points="934.2744,-266 931.2744,-270 910.2744,-270 907.2744,-266 805.7256,-266 805.7256,-230 934.2744,-230 934.2744,-266"/>
<text text-anchor="middle" x="870" y="-243.8" font-family="Times,serif" font-size="14.00" fill="#000000">AppRoutingModule</text>
</g>
<!-- AppRoutingModule&#45;&gt;AppModule -->
<g id="edge5" class="edge">
<title>AppRoutingModule&#45;&gt;AppModule</title>
<path fill="none" stroke="#000000" d="M870,-266.1061C870,-266.1061 870,-284.991 870,-284.991"/>
<polygon fill="#000000" stroke="#000000" points="866.5001,-284.9909 870,-294.991 873.5001,-284.991 866.5001,-284.9909"/>
</g>
<!-- CoreModule&#45;&gt;AppModule -->
<g id="edge6" class="edge">
<title>CoreModule&#45;&gt;AppModule</title>
<path fill="none" stroke="#000000" d="M744,-266.1061C744,-285.3391 744,-313 744,-313 744,-313 818.0438,-313 818.0438,-313"/>
<polygon fill="#000000" stroke="#000000" points="818.0439,-316.5001 828.0438,-313 818.0438,-309.5001 818.0439,-316.5001"/>
</g>
<!-- ErrorDialogComponent -->
<g id="node10" class="node">
<title>ErrorDialogComponent</title>
<polygon fill="#ffffb3" stroke="#000000" points="1244.4692,-190 1095.5308,-190 1095.5308,-154 1244.4692,-154 1244.4692,-190"/>
<text text-anchor="middle" x="1170" y="-167.8" font-family="Times,serif" font-size="14.00" fill="#000000">ErrorDialogComponent</text>
</g>
<!-- ErrorDialogComponent&#45;&gt;CoreModule -->
<g id="edge8" class="edge">
<title>ErrorDialogComponent&#45;&gt;CoreModule</title>
<path fill="none" stroke="#000000" d="M1170,-190.0439C1170,-202.5633 1170,-217 1170,-217 1170,-217 776.601,-217 776.601,-217 776.601,-217 776.601,-219.9672 776.601,-219.9672"/>
<polygon fill="#000000" stroke="#000000" points="773.1011,-219.9671 776.601,-229.9672 780.1011,-219.9672 773.1011,-219.9671"/>
</g>
<!-- ErrorInterceptor -->
<g id="node11" class="node">
<title>ErrorInterceptor</title>
<ellipse fill="#fdb462" stroke="#000000" cx="998" cy="-172" rx="73.5329" ry="18"/>
<text text-anchor="middle" x="998" y="-167.8" font-family="Times,serif" font-size="14.00" fill="#000000">ErrorInterceptor</text>
</g>
<!-- ErrorInterceptor&#45;&gt;CoreModule -->
<g id="edge10" class="edge">
<title>ErrorInterceptor&#45;&gt;CoreModule</title>
<path fill="none" stroke="#000000" d="M929.3105,-178.7864C929.3105,-188.1797 929.3105,-204 929.3105,-204 929.3105,-204 765.8212,-204 765.8212,-204 765.8212,-204 765.8212,-219.8495 765.8212,-219.8495"/>
<polygon fill="#000000" stroke="#000000" points="762.3213,-219.8494 765.8212,-229.8495 769.3213,-219.8495 762.3213,-219.8494"/>
</g>
<!-- LoaderInterceptor -->
<g id="node12" class="node">
<title>LoaderInterceptor</title>
<ellipse fill="#fdb462" stroke="#000000" cx="825" cy="-172" rx="80.9775" ry="18"/>
<text text-anchor="middle" x="825" y="-167.8" font-family="Times,serif" font-size="14.00" fill="#000000">LoaderInterceptor</text>
</g>
<!-- LoaderInterceptor&#45;&gt;CoreModule -->
<g id="edge11" class="edge">
<title>LoaderInterceptor&#45;&gt;CoreModule</title>
<path fill="none" stroke="#000000" d="M755.0414,-181.0166C755.0414,-181.0166 755.0414,-219.7357 755.0414,-219.7357"/>
<polygon fill="#000000" stroke="#000000" points="751.5415,-219.7356 755.0414,-229.7357 758.5415,-219.7357 751.5415,-219.7356"/>
</g>
<!-- RouteService -->
<g id="node13" class="node">
<title>RouteService</title>
<ellipse fill="#fdb462" stroke="#000000" cx="663" cy="-172" rx="63.1189" ry="18"/>
<text text-anchor="middle" x="663" y="-167.8" font-family="Times,serif" font-size="14.00" fill="#000000">RouteService</text>
</g>
<!-- RouteService&#45;&gt;CoreModule -->
<g id="edge12" class="edge">
<title>RouteService&#45;&gt;CoreModule</title>
<path fill="none" stroke="#000000" d="M713.3393,-182.8889C713.3393,-182.8889 713.3393,-219.7946 713.3393,-219.7946"/>
<polygon fill="#000000" stroke="#000000" points="709.8394,-219.7946 713.3393,-229.7946 716.8394,-219.7946 709.8394,-219.7946"/>
</g>
<!-- SpinnerService -->
<g id="node14" class="node">
<title>SpinnerService</title>
<ellipse fill="#fdb462" stroke="#000000" cx="512" cy="-172" rx="70.0616" ry="18"/>
<text text-anchor="middle" x="512" y="-167.8" font-family="Times,serif" font-size="14.00" fill="#000000">SpinnerService</text>
</g>
<!-- SpinnerService&#45;&gt;CoreModule -->
<g id="edge13" class="edge">
<title>SpinnerService&#45;&gt;CoreModule</title>
<path fill="none" stroke="#000000" d="M512,-190.0267C512,-210.7672 512,-242 512,-242 512,-242 690.6347,-242 690.6347,-242"/>
<polygon fill="#000000" stroke="#000000" points="690.6348,-245.5001 700.6347,-242 690.6347,-238.5001 690.6348,-245.5001"/>
</g>
<!-- DetailComponent -->
<g id="node15" class="node">
<title>DetailComponent</title>
<polygon fill="#ffffb3" stroke="#000000" points="2277.5409,-122 2162.4591,-122 2162.4591,-86 2277.5409,-86 2277.5409,-122"/>
<text text-anchor="middle" x="2220" y="-99.8" font-family="Times,serif" font-size="14.00" fill="#000000">DetailComponent</text>
</g>
<!-- PetModule -->
<g id="node20" class="node">
<title>PetModule</title>
<polygon fill="#8dd3c7" stroke="#000000" points="1838.9388,-190 1835.9388,-194 1814.9388,-194 1811.9388,-190 1761.0612,-190 1761.0612,-154 1838.9388,-154 1838.9388,-190"/>
<text text-anchor="middle" x="1800" y="-167.8" font-family="Times,serif" font-size="14.00" fill="#000000">PetModule</text>
</g>
<!-- DetailComponent&#45;&gt;PetModule -->
<g id="edge14" class="edge">
<title>DetailComponent&#45;&gt;PetModule</title>
<path fill="none" stroke="#000000" d="M2220,-122.2479C2220,-145.0179 2220,-181 2220,-181 2220,-181 1848.7598,-181 1848.7598,-181"/>
<polygon fill="#000000" stroke="#000000" points="1848.7598,-177.5001 1838.7598,-181 1848.7597,-184.5001 1848.7598,-177.5001"/>
</g>
<!-- EditComponent -->
<g id="node16" class="node">
<title>EditComponent</title>
<polygon fill="#ffffb3" stroke="#000000" points="2144.1667,-122 2039.8333,-122 2039.8333,-86 2144.1667,-86 2144.1667,-122"/>
<text text-anchor="middle" x="2092" y="-99.8" font-family="Times,serif" font-size="14.00" fill="#000000">EditComponent</text>
</g>
<!-- EditComponent&#45;&gt;PetModule -->
<g id="edge15" class="edge">
<title>EditComponent&#45;&gt;PetModule</title>
<path fill="none" stroke="#000000" d="M2092,-122.2228C2092,-142.3652 2092,-172 2092,-172 2092,-172 1848.7753,-172 1848.7753,-172"/>
<polygon fill="#000000" stroke="#000000" points="1848.7754,-168.5001 1838.7753,-172 1848.7753,-175.5001 1848.7754,-168.5001"/>
</g>
<!-- EditFormComponent -->
<g id="node17" class="node">
<title>EditFormComponent</title>
<polygon fill="#ffffb3" stroke="#000000" points="2021.5,-122 1886.5,-122 1886.5,-86 2021.5,-86 2021.5,-122"/>
<text text-anchor="middle" x="1954" y="-99.8" font-family="Times,serif" font-size="14.00" fill="#000000">EditFormComponent</text>
</g>
<!-- EditFormComponent&#45;&gt;PetModule -->
<g id="edge16" class="edge">
<title>EditFormComponent&#45;&gt;PetModule</title>
<path fill="none" stroke="#000000" d="M1954,-122.0225C1954,-139.3734 1954,-163 1954,-163 1954,-163 1848.8607,-163 1848.8607,-163"/>
<polygon fill="#000000" stroke="#000000" points="1848.8607,-159.5001 1838.8607,-163 1848.8607,-166.5001 1848.8607,-159.5001"/>
</g>
<!-- OverviewComponent -->
<g id="node18" class="node">
<title>OverviewComponent</title>
<polygon fill="#ffffb3" stroke="#000000" points="1868.0268,-122 1731.9732,-122 1731.9732,-86 1868.0268,-86 1868.0268,-122"/>
<text text-anchor="middle" x="1800" y="-99.8" font-family="Times,serif" font-size="14.00" fill="#000000">OverviewComponent</text>
</g>
<!-- OverviewComponent&#45;&gt;PetModule -->
<g id="edge17" class="edge">
<title>OverviewComponent&#45;&gt;PetModule</title>
<path fill="none" stroke="#000000" d="M1800,-122.2228C1800,-122.2228 1800,-143.7269 1800,-143.7269"/>
<polygon fill="#000000" stroke="#000000" points="1796.5001,-143.7269 1800,-153.7269 1803.5001,-143.727 1796.5001,-143.7269"/>
</g>
<!-- OverviewTableComponent -->
<g id="node19" class="node">
<title>OverviewTableComponent</title>
<polygon fill="#ffffb3" stroke="#000000" points="1714.3989,-122 1545.6011,-122 1545.6011,-86 1714.3989,-86 1714.3989,-122"/>
<text text-anchor="middle" x="1630" y="-99.8" font-family="Times,serif" font-size="14.00" fill="#000000">OverviewTableComponent</text>
</g>
<!-- OverviewTableComponent&#45;&gt;PetModule -->
<g id="edge18" class="edge">
<title>OverviewTableComponent&#45;&gt;PetModule</title>
<path fill="none" stroke="#000000" d="M1630,-122.0225C1630,-139.3734 1630,-163 1630,-163 1630,-163 1750.9986,-163 1750.9986,-163"/>
<polygon fill="#000000" stroke="#000000" points="1750.9986,-166.5001 1760.9986,-163 1750.9985,-159.5001 1750.9986,-166.5001"/>
</g>
<!-- PetRoutingModule -->
<g id="node21" class="node">
<title>PetRoutingModule</title>
<polygon fill="#8dd3c7" stroke="#000000" points="1522.0562,-122 1519.0562,-126 1498.0562,-126 1495.0562,-122 1399.9438,-122 1399.9438,-86 1522.0562,-86 1522.0562,-122"/>
<text text-anchor="middle" x="1461" y="-99.8" font-family="Times,serif" font-size="14.00" fill="#000000">PetRoutingModule</text>
</g>
<!-- PetRoutingModule&#45;&gt;PetModule -->
<g id="edge19" class="edge">
<title>PetRoutingModule&#45;&gt;PetModule</title>
<path fill="none" stroke="#000000" d="M1461,-122.2228C1461,-142.3652 1461,-172 1461,-172 1461,-172 1751.1124,-172 1751.1124,-172"/>
<polygon fill="#000000" stroke="#000000" points="1751.1124,-175.5001 1761.1124,-172 1751.1124,-168.5001 1751.1124,-175.5001"/>
</g>
<!-- SharedModule -->
<g id="node22" class="node">
<title>SharedModule</title>
<polygon fill="#8dd3c7" stroke="#000000" points="1382.4231,-122 1379.4231,-126 1358.4231,-126 1355.4231,-122 1283.5769,-122 1283.5769,-86 1382.4231,-86 1382.4231,-122"/>
<text text-anchor="middle" x="1333" y="-99.8" font-family="Times,serif" font-size="14.00" fill="#000000">SharedModule</text>
</g>
<!-- SharedModule&#45;&gt;PetModule -->
<g id="edge20" class="edge">
<title>SharedModule&#45;&gt;PetModule</title>
<path fill="none" stroke="#000000" d="M1333,-122.2479C1333,-145.0179 1333,-181 1333,-181 1333,-181 1750.9871,-181 1750.9871,-181"/>
<polygon fill="#000000" stroke="#000000" points="1750.9871,-184.5001 1760.9871,-181 1750.987,-177.5001 1750.9871,-184.5001"/>
</g>
</g>
</svg>
