<?xml version="1.0" encoding="UTF-8" standalone="no"?>
<!DOCTYPE svg PUBLIC "-//W3C//DTD SVG 1.1//EN"
 "http://www.w3.org/Graphics/SVG/1.1/DTD/svg11.dtd">
<!-- Generated by graphviz version 2.40.1 (20161225.0304)
 -->
<!-- Title: dependencies Pages: 1 -->
<svg width="1050pt" height="211pt"
 viewBox="0.00 0.00 1050.00 211.00" xmlns="http://www.w3.org/2000/svg" xmlns:xlink="http://www.w3.org/1999/xlink">
<g id="graph0" class="graph" transform="scale(1 1) rotate(0) translate(4 207)">
<title>dependencies</title>
<polygon fill="#ffffff" stroke="transparent" points="-4,4 -4,-207 1046,-207 1046,4 -4,4"/>
<text text-anchor="start" x="500.0091" y="-42.4" font-family="sans-serif" font-weight="bold" font-size="14.00" fill="#000000">Legend</text>
<polygon fill="#ffffb3" stroke="transparent" points="287,-10 287,-30 307,-30 307,-10 287,-10"/>
<text text-anchor="start" x="310.629" y="-15.4" font-family="sans-serif" font-size="14.00" fill="#000000"> &#160;Declarations</text>
<polygon fill="#8dd3c7" stroke="transparent" points="400,-10 400,-30 420,-30 420,-10 400,-10"/>
<text text-anchor="start" x="423.7251" y="-15.4" font-family="sans-serif" font-size="14.00" fill="#000000"> &#160;Module</text>
<polygon fill="#80b1d3" stroke="transparent" points="486,-10 486,-30 506,-30 506,-10 486,-10"/>
<text text-anchor="start" x="509.7812" y="-15.4" font-family="sans-serif" font-size="14.00" fill="#000000"> &#160;Bootstrap</text>
<polygon fill="#fdb462" stroke="transparent" points="583,-10 583,-30 603,-30 603,-10 583,-10"/>
<text text-anchor="start" x="606.6732" y="-15.4" font-family="sans-serif" font-size="14.00" fill="#000000"> &#160;Providers</text>
<polygon fill="#fb8072" stroke="transparent" points="679,-10 679,-30 699,-30 699,-10 679,-10"/>
<text text-anchor="start" x="702.7258" y="-15.4" font-family="sans-serif" font-size="14.00" fill="#000000"> &#160;Exports</text>
<g id="clust1" class="cluster">
<title>cluster_PetModule</title>
<polygon fill="none" stroke="#000000" stroke-dasharray="1,5" points="8,-70 8,-195 1034,-195 1034,-70 8,-70"/>
</g>
<g id="clust2" class="cluster">
<title>cluster_PetModule_declarations</title>
<polygon fill="none" stroke="#000000" points="278,-78 278,-130 1026,-130 1026,-78 278,-78"/>
</g>
<g id="clust8" class="cluster">
<title>cluster_PetModule_imports</title>
<polygon fill="none" stroke="#000000" points="16,-78 16,-130 270,-130 270,-78 16,-78"/>
</g>
<!-- DetailComponent -->
<g id="node1" class="node">
<title>DetailComponent</title>
<polygon fill="#ffffb3" stroke="#000000" points="1017.5409,-122 902.4591,-122 902.4591,-86 1017.5409,-86 1017.5409,-122"/>
<text text-anchor="middle" x="960" y="-99.8" font-family="Times,serif" font-size="14.00" fill="#000000">DetailComponent</text>
</g>
<!-- PetModule -->
<g id="node6" class="node">
<title>PetModule</title>
<polygon fill="#8dd3c7" stroke="#000000" points="578.9388,-187 575.9388,-191 554.9388,-191 551.9388,-187 501.0612,-187 501.0612,-151 578.9388,-151 578.9388,-187"/>
<text text-anchor="middle" x="540" y="-164.8" font-family="Times,serif" font-size="14.00" fill="#000000">PetModule</text>
</g>
<!-- DetailComponent&#45;&gt;PetModule -->
<g id="edge1" class="edge">
<title>DetailComponent&#45;&gt;PetModule</title>
<path fill="none" stroke="#000000" d="M960,-122.2921C960,-144.2057 960,-178 960,-178 960,-178 588.7598,-178 588.7598,-178"/>
<polygon fill="#000000" stroke="#000000" points="588.7598,-174.5001 578.7598,-178 588.7597,-181.5001 588.7598,-174.5001"/>
</g>
<!-- EditComponent -->
<g id="node2" class="node">
<title>EditComponent</title>
<polygon fill="#ffffb3" stroke="#000000" points="884.1667,-122 779.8333,-122 779.8333,-86 884.1667,-86 884.1667,-122"/>
<text text-anchor="middle" x="832" y="-99.8" font-family="Times,serif" font-size="14.00" fill="#000000">EditComponent</text>
</g>
<!-- EditComponent&#45;&gt;PetModule -->
<g id="edge2" class="edge">
<title>EditComponent&#45;&gt;PetModule</title>
<path fill="none" stroke="#000000" d="M832,-122.1061C832,-141.3391 832,-169 832,-169 832,-169 588.7753,-169 588.7753,-169"/>
<polygon fill="#000000" stroke="#000000" points="588.7754,-165.5001 578.7753,-169 588.7753,-172.5001 588.7754,-165.5001"/>
</g>
<!-- EditFormComponent -->
<g id="node3" class="node">
<title>EditFormComponent</title>
<polygon fill="#ffffb3" stroke="#000000" points="761.5,-122 626.5,-122 626.5,-86 761.5,-86 761.5,-122"/>
<text text-anchor="middle" x="694" y="-99.8" font-family="Times,serif" font-size="14.00" fill="#000000">EditFormComponent</text>
</g>
<!-- EditFormComponent&#45;&gt;PetModule -->
<g id="edge3" class="edge">
<title>EditFormComponent&#45;&gt;PetModule</title>
<path fill="none" stroke="#000000" d="M694,-122.027C694,-138.3976 694,-160 694,-160 694,-160 588.8607,-160 588.8607,-160"/>
<polygon fill="#000000" stroke="#000000" points="588.8607,-156.5001 578.8607,-160 588.8607,-163.5001 588.8607,-156.5001"/>
</g>
<!-- OverviewComponent -->
<g id="node4" class="node">
<title>OverviewComponent</title>
<polygon fill="#ffffb3" stroke="#000000" points="608.0268,-122 471.9732,-122 471.9732,-86 608.0268,-86 608.0268,-122"/>
<text text-anchor="middle" x="540" y="-99.8" font-family="Times,serif" font-size="14.00" fill="#000000">OverviewComponent</text>
</g>
<!-- OverviewComponent&#45;&gt;PetModule -->
<g id="edge4" class="edge">
<title>OverviewComponent&#45;&gt;PetModule</title>
<path fill="none" stroke="#000000" d="M540,-122.1061C540,-122.1061 540,-140.991 540,-140.991"/>
<polygon fill="#000000" stroke="#000000" points="536.5001,-140.9909 540,-150.991 543.5001,-140.991 536.5001,-140.9909"/>
</g>
<!-- OverviewTableComponent -->
<g id="node5" class="node">
<title>OverviewTableComponent</title>
<polygon fill="#ffffb3" stroke="#000000" points="454.3989,-122 285.6011,-122 285.6011,-86 454.3989,-86 454.3989,-122"/>
<text text-anchor="middle" x="370" y="-99.8" font-family="Times,serif" font-size="14.00" fill="#000000">OverviewTableComponent</text>
</g>
<!-- OverviewTableComponent&#45;&gt;PetModule -->
<g id="edge5" class="edge">
<title>OverviewTableComponent&#45;&gt;PetModule</title>
<path fill="none" stroke="#000000" d="M370,-122.027C370,-138.3976 370,-160 370,-160 370,-160 490.9986,-160 490.9986,-160"/>
<polygon fill="#000000" stroke="#000000" points="490.9986,-163.5001 500.9986,-160 490.9985,-156.5001 490.9986,-163.5001"/>
</g>
<!-- PetRoutingModule -->
<g id="node7" class="node">
<title>PetRoutingModule</title>
<polygon fill="#8dd3c7" stroke="#000000" points="262.0562,-122 259.0562,-126 238.0562,-126 235.0562,-122 139.9438,-122 139.9438,-86 262.0562,-86 262.0562,-122"/>
<text text-anchor="middle" x="201" y="-99.8" font-family="Times,serif" font-size="14.00" fill="#000000">PetRoutingModule</text>
</g>
<!-- PetRoutingModule&#45;&gt;PetModule -->
<g id="edge6" class="edge">
<title>PetRoutingModule&#45;&gt;PetModule</title>
<path fill="none" stroke="#000000" d="M201,-122.1061C201,-141.3391 201,-169 201,-169 201,-169 491.1124,-169 491.1124,-169"/>
<polygon fill="#000000" stroke="#000000" points="491.1124,-172.5001 501.1124,-169 491.1124,-165.5001 491.1124,-172.5001"/>
</g>
<!-- SharedModule -->
<g id="node8" class="node">
<title>SharedModule</title>
<polygon fill="#8dd3c7" stroke="#000000" points="122.4231,-122 119.4231,-126 98.4231,-126 95.4231,-122 23.5769,-122 23.5769,-86 122.4231,-86 122.4231,-122"/>
<text text-anchor="middle" x="73" y="-99.8" font-family="Times,serif" font-size="14.00" fill="#000000">SharedModule</text>
</g>
<!-- SharedModule&#45;&gt;PetModule -->
<g id="edge7" class="edge">
<title>SharedModule&#45;&gt;PetModule</title>
<path fill="none" stroke="#000000" d="M73,-122.2921C73,-144.2057 73,-178 73,-178 73,-178 490.9871,-178 490.9871,-178"/>
<polygon fill="#000000" stroke="#000000" points="490.9871,-181.5001 500.9871,-178 490.987,-174.5001 490.9871,-181.5001"/>
</g>
</g>
</svg>
