<?xml version="1.0" encoding="UTF-8" standalone="no"?>
<!DOCTYPE svg PUBLIC "-//W3C//DTD SVG 1.1//EN"
 "http://www.w3.org/Graphics/SVG/1.1/DTD/svg11.dtd">
<!-- Generated by graphviz version 2.40.1 (20161225.0304)
 -->
<!-- Title: dependencies Pages: 1 -->
<svg width="962pt" height="211pt"
 viewBox="0.00 0.00 962.00 211.00" xmlns="http://www.w3.org/2000/svg" xmlns:xlink="http://www.w3.org/1999/xlink">
<g id="graph0" class="graph" transform="scale(1 1) rotate(0) translate(4 207)">
<title>dependencies</title>
<polygon fill="#ffffff" stroke="transparent" points="-4,4 -4,-207 958,-207 958,4 -4,4"/>
<text text-anchor="start" x="456.0091" y="-42.4" font-family="sans-serif" font-weight="bold" font-size="14.00" fill="#000000">Legend</text>
<polygon fill="#ffffb3" stroke="transparent" points="243,-10 243,-30 263,-30 263,-10 243,-10"/>
<text text-anchor="start" x="266.629" y="-15.4" font-family="sans-serif" font-size="14.00" fill="#000000"> &#160;Declarations</text>
<polygon fill="#8dd3c7" stroke="transparent" points="356,-10 356,-30 376,-30 376,-10 356,-10"/>
<text text-anchor="start" x="379.7251" y="-15.4" font-family="sans-serif" font-size="14.00" fill="#000000"> &#160;Module</text>
<polygon fill="#80b1d3" stroke="transparent" points="442,-10 442,-30 462,-30 462,-10 442,-10"/>
<text text-anchor="start" x="465.7812" y="-15.4" font-family="sans-serif" font-size="14.00" fill="#000000"> &#160;Bootstrap</text>
<polygon fill="#fdb462" stroke="transparent" points="539,-10 539,-30 559,-30 559,-10 539,-10"/>
<text text-anchor="start" x="562.6732" y="-15.4" font-family="sans-serif" font-size="14.00" fill="#000000"> &#160;Providers</text>
<polygon fill="#fb8072" stroke="transparent" points="635,-10 635,-30 655,-30 655,-10 635,-10"/>
<text text-anchor="start" x="658.7258" y="-15.4" font-family="sans-serif" font-size="14.00" fill="#000000"> &#160;Exports</text>
<g id="clust1" class="cluster">
<title>cluster_CoreModule</title>
<polygon fill="none" stroke="#000000" stroke-dasharray="1,5" points="8,-70 8,-195 946,-195 946,-70 8,-70"/>
</g>
<g id="clust2" class="cluster">
<title>cluster_CoreModule_declarations</title>
<polygon fill="none" stroke="#000000" points="774,-78 774,-130 938,-130 938,-78 774,-78"/>
</g>
<g id="clust4" class="cluster">
<title>cluster_CoreModule_imports</title>
<polygon fill="none" stroke="#000000" points="670,-78 670,-130 766,-130 766,-78 670,-78"/>
</g>
<g id="clust7" class="cluster">
<title>cluster_CoreModule_providers</title>
<polygon fill="none" stroke="#000000" points="16,-78 16,-130 662,-130 662,-78 16,-78"/>
</g>
<!-- ErrorDialogComponent -->
<g id="node1" class="node">
<title>ErrorDialogComponent</title>
<polygon fill="#ffffb3" stroke="#000000" points="930.4692,-122 781.5308,-122 781.5308,-86 930.4692,-86 930.4692,-122"/>
<text text-anchor="middle" x="856" y="-99.8" font-family="Times,serif" font-size="14.00" fill="#000000">ErrorDialogComponent</text>
</g>
<!-- CoreModule -->
<g id="node2" class="node">
<title>CoreModule</title>
<polygon fill="#8dd3c7" stroke="#000000" points="536.2619,-187 533.2619,-191 512.2619,-191 509.2619,-187 449.7381,-187 449.7381,-151 536.2619,-151 536.2619,-187"/>
<text text-anchor="middle" x="493" y="-164.8" font-family="Times,serif" font-size="14.00" fill="#000000">CoreModule</text>
</g>
<!-- ErrorDialogComponent&#45;&gt;CoreModule -->
<g id="edge1" class="edge">
<title>ErrorDialogComponent&#45;&gt;CoreModule</title>
<path fill="none" stroke="#000000" d="M856,-122.2843C856,-143.3211 856,-175 856,-175 856,-175 546.4257,-175 546.4257,-175"/>
<polygon fill="#000000" stroke="#000000" points="546.4258,-171.5001 536.4257,-175 546.4257,-178.5001 546.4258,-171.5001"/>
</g>
<!-- ApiModule -->
<g id="node3" class="node">
<title>ApiModule</title>
<polygon fill="#8dd3c7" stroke="#000000" points="758.0483,-122 755.0483,-126 734.0483,-126 731.0483,-122 677.9517,-122 677.9517,-86 758.0483,-86 758.0483,-122"/>
<text text-anchor="middle" x="718" y="-99.8" font-family="Times,serif" font-size="14.00" fill="#000000">ApiModule</text>
</g>
<!-- ApiModule&#45;&gt;CoreModule -->
<g id="edge2" class="edge">
<title>ApiModule&#45;&gt;CoreModule</title>
<path fill="none" stroke="#000000" d="M718,-122.0225C718,-139.3734 718,-163 718,-163 718,-163 546.3823,-163 546.3823,-163"/>
<polygon fill="#000000" stroke="#000000" points="546.3823,-159.5001 536.3823,-163 546.3822,-166.5001 546.3823,-159.5001"/>
</g>
<!-- ErrorInterceptor -->
<g id="node4" class="node">
<title>ErrorInterceptor</title>
<ellipse fill="#fdb462" stroke="#000000" cx="580" cy="-104" rx="73.5329" ry="18"/>
<text text-anchor="middle" x="580" y="-99.8" font-family="Times,serif" font-size="14.00" fill="#000000">ErrorInterceptor</text>
</g>
<!-- ErrorInterceptor&#45;&gt;CoreModule -->
<g id="edge3" class="edge">
<title>ErrorInterceptor&#45;&gt;CoreModule</title>
<path fill="none" stroke="#000000" d="M521.3074,-115.0264C521.3074,-115.0264 521.3074,-140.7791 521.3074,-140.7791"/>
<polygon fill="#000000" stroke="#000000" points="517.8075,-140.779 521.3074,-150.7791 524.8075,-140.7791 517.8075,-140.779"/>
</g>
<!-- LoaderInterceptor -->
<g id="node5" class="node">
<title>LoaderInterceptor</title>
<ellipse fill="#fdb462" stroke="#000000" cx="407" cy="-104" rx="80.9775" ry="18"/>
<text text-anchor="middle" x="407" y="-99.8" font-family="Times,serif" font-size="14.00" fill="#000000">LoaderInterceptor</text>
</g>
<!-- LoaderInterceptor&#45;&gt;CoreModule -->
<g id="edge4" class="edge">
<title>LoaderInterceptor&#45;&gt;CoreModule</title>
<path fill="none" stroke="#000000" d="M468.6788,-115.6207C468.6788,-115.6207 468.6788,-140.8534 468.6788,-140.8534"/>
<polygon fill="#000000" stroke="#000000" points="465.1789,-140.8533 468.6788,-150.8534 472.1789,-140.8534 465.1789,-140.8533"/>
</g>
<!-- RouteService -->
<g id="node6" class="node">
<title>RouteService</title>
<ellipse fill="#fdb462" stroke="#000000" cx="245" cy="-104" rx="63.1189" ry="18"/>
<text text-anchor="middle" x="245" y="-99.8" font-family="Times,serif" font-size="14.00" fill="#000000">RouteService</text>
</g>
<!-- RouteService&#45;&gt;CoreModule -->
<g id="edge5" class="edge">
<title>RouteService&#45;&gt;CoreModule</title>
<path fill="none" stroke="#000000" d="M245,-122.0225C245,-139.3734 245,-163 245,-163 245,-163 439.5179,-163 439.5179,-163"/>
<polygon fill="#000000" stroke="#000000" points="439.5179,-166.5001 449.5179,-163 439.5179,-159.5001 439.5179,-166.5001"/>
</g>
<!-- SpinnerService -->
<g id="node7" class="node">
<title>SpinnerService</title>
<ellipse fill="#fdb462" stroke="#000000" cx="94" cy="-104" rx="70.0616" ry="18"/>
<text text-anchor="middle" x="94" y="-99.8" font-family="Times,serif" font-size="14.00" fill="#000000">SpinnerService</text>
</g>
<!-- SpinnerService&#45;&gt;CoreModule -->
<g id="edge6" class="edge">
<title>SpinnerService&#45;&gt;CoreModule</title>
<path fill="none" stroke="#000000" d="M94,-122.2843C94,-143.3211 94,-175 94,-175 94,-175 439.5405,-175 439.5405,-175"/>
<polygon fill="#000000" stroke="#000000" points="439.5405,-178.5001 449.5405,-175 439.5404,-171.5001 439.5405,-178.5001"/>
</g>
</g>
</svg>
